
<svg style="width: 20px; height: 20px; color: #2563eb;" fill="none" stroke="currentColor" viewBox="0 0 24 24" xmlns="http://www.w3.org/2000/svg">
<!-- <svg xmlns="http://www.w3.org/2000/svg" width="24" height="24" fill="currentColor" class="bi bi-calendar2-minus" viewBox="0 0 24 24"> -->
  <path d="M8.25 15.75A.75.75 0 0 1 9 15h6a.75.75 0 0 1 0 1.5H9a.75.75 0 0 1-.75-.75"/>
  <path d="M5.25 0a.75.75 0 0 1 .75.75V1.5h12V.75a.75.75 0 0 1 1.5 0V1.5h1.5a3 3 0 0 1 3 3v16.5a3 3 0 0 1-3 3H3a3 3 0 0 1-3-3V4.5a3 3 0 0 1 3-3h1.5V.75a.75.75 0 0 1 .75-.75M3 3a1.5 1.5 0 0 0-1.5 1.5v16.5a1.5 1.5 0 0 0 1.5 1.5h18a1.5 1.5 0 0 0 1.5-1.5V4.5a1.5 1.5 0 0 0-1.5-1.5z"/>
  <path d="M3.75 6a.75.75 0 0 1 .75-.75h15a.75.75 0 0 1 .75.75v1.5a.75.75 0 0 1-.75.75h-15a.75.75 0 0 1-.75-.75z"/>
</svg>