
<svg width="20" height="20" viewBox="0 0 24 24" fill="none" stroke="currentColor" stroke-width="1.5" stroke-linecap="round" stroke-linejoin="round" xmlns="http://www.w3.org/2000/svg">
  <path d="M4 5a2 2 0 0 0-2 2v14a2 2 0 0 0 2 2h16a2 2 0 0 0 2-2V7a2 2 0 0 0-2-2H4z"/>
  <path d="M2 10h20"/>
  <path d="M6 2v4"/>
  <path d="M18 2v4"/>
  <circle cx="6" cy="14" r="1.5"/>
  <circle cx="10" cy="14" r="1.5"/>
  <circle cx="14" cy="14" r="1.5"/>
  <circle cx="6" cy="18" r="1.5"/>
  <circle cx="10" cy="18" r="1.5"/>
  <path d="M18 14a4 4 0 1 1 0 8 4 4 0 0 1 0-8zm0 2v4m-2 0h4"/>
</svg>
